PathFileType	4	(X/Y/Z)	OpenSim_Sub09_EMGStiffKnee_Magnet.trc
DataRate	CameraRate	NumFrames	NumMarkers	Units	OrigDataRate	OrigDataStartFrame	OrigNumFrames
100	100	27	8	m	100	949	7584
Frame#	Time	torso_imu_offset_imu	pelvis_imu_offset_imu	tibia_r_imu_offset_imu	femur_r_imu_offset_imu	tibia_l_imu_offset_imu	femur_l_imu_offset_imu	toes_r_imu_offset_imu	toes_l_imu_offset_imu
				X1	Y1	Z1	X2	Y2	Z2	X3	Y3	Z3	X4	Y4	Z4	X5	Y5	Z5	X6	Y6	Z6	X7	Y7	Z7	X8		Y8	Z8	

949	9.48000000	-0.92105812	-0.16944915	0.08936448	-0.57980948	0.27001220	-0.67279682	-0.69073356	-0.49710929	-0.05918540	-0.83529236	-0.14337158	0.01135163	-0.35688988	0.73796623	0.15445005	-0.58707072	0.55128139	0.23150651	-0.69136924	-0.05722600	-0.38227670	-0.83708255	0.02281880	-0.06766804
950	9.49000000	-0.92100880	-0.17077553	0.08247353	-0.58401455	0.27244283	-0.67352360	-0.69202014	-0.50325467	-0.03625677	-0.84295363	-0.13689574	0.01306147	-0.34562707	0.74575531	0.15228795	-0.59362672	0.55871496	0.22887141	-0.69447183	-0.06811585	-0.38056467	-0.83513663	0.03512117	-0.03967675
951	9.50000000	-0.92061978	-0.17139413	0.09101728	-0.58798124	0.26437570	-0.67246679	-0.69289639	-0.50341170	-0.02239100	-0.84422713	-0.12991901	0.02369718	-0.33248761	0.75328236	0.14913802	-0.59171097	0.55492203	0.22560995	-0.68806611	-0.06830898	-0.37452069	-0.83782810	0.05026563	-0.00593108
952	9.51000000	-0.92510428	-0.16890140	0.08323896	-0.59074455	0.26343193	-0.67775015	-0.68285942	-0.51271722	-0.00626370	-0.84216765	-0.13578810	0.03180750	-0.32314945	0.75560184	0.15117205	-0.59802773	0.55408488	0.20932718	-0.69100339	-0.07773642	-0.36783196	-0.83448348	0.06385986	0.02387189
953	9.52000000	-0.92328294	-0.17279317	0.08298774	-0.58654971	0.26393713	-0.66855090	-0.67016616	-0.52884092	0.00207549	-0.83777556	-0.13588613	0.03155135	-0.31411243	0.75974376	0.14836350	-0.59455616	0.55860479	0.21668289	-0.69566560	-0.08472119	-0.36557629	-0.83190406	0.07425042	0.04914583
954	9.53000000	-0.92467693	-0.17715692	0.07627326	-0.58854537	0.25982547	-0.67640241	-0.65210056	-0.54813761	0.00322184	-0.83936671	-0.14711853	0.04241516	-0.30973971	0.76431159	0.15437051	-0.59354158	0.55708578	0.21265424	-0.69402215	-0.08502846	-0.36116683	-0.83321812	0.09177692	0.06898219
955	9.54000000	-0.92713567	-0.18102964	0.08268860	-0.58214780	0.25797580	-0.68167283	-0.65262607	-0.55401832	-0.00106563	-0.83524111	-0.16329763	0.05094897	-0.29925729	0.76666060	0.15860436	-0.60005147	0.55420895	0.19550296	-0.68975718	-0.08492487	-0.36479914	-0.82282647	0.10126674	0.09420308
956	9.55000000	-0.92299287	-0.18625708	0.07732102	-0.58536371	0.25165012	-0.68397203	-0.65327490	-0.54949976	-0.00095115	-0.83056871	-0.18588233	0.05205711	-0.29141750	0.76719865	0.16895958	-0.60439620	0.55868363	0.20180731	-0.68918186	-0.08646179	-0.36553354	-0.81788053	0.11178152	0.10644900
957	9.56000000	-0.92254804	-0.17968571	0.07623275	-0.58794315	0.24957814	-0.68561066	-0.65112676	-0.55530478	-0.01160040	-0.82157013	-0.20303506	0.05513086	-0.29154403	0.76223675	0.18466821	-0.61537745	0.55230462	0.19144279	-0.69308501	-0.09256821	-0.36126331	-0.81843131	0.12484210	0.11938225
958	9.57000000	-0.92645348	-0.18920555	0.07675225	-0.58583172	0.23944756	-0.69492459	-0.64880805	-0.55374074	-0.01436523	-0.82074169	-0.21937152	0.05333759	-0.27922210	0.76646091	0.19999118	-0.61562597	0.55446153	0.19297374	-0.69344492	-0.09344317	-0.35886471	-0.81505659	0.13808927	0.13306667
959	9.58000000	-0.92699861	-0.19067311	0.07479283	-0.58306337	0.23469980	-0.69278549	-0.64847497	-0.55903484	-0.02070366	-0.81465640	-0.23107522	0.05992662	-0.26930522	0.76249575	0.21353427	-0.62574085	0.54412346	0.18137147	-0.69186165	-0.09272311	-0.36062155	-0.81004379	0.14537022	0.14257578
960	9.59000000	-0.92307008	-0.18618145	0.07217016	-0.58737221	0.23049958	-0.69937553	-0.64664397	-0.56552876	-0.02292751	-0.81157574	-0.23246365	0.06535920	-0.26081288	0.76423186	0.22509702	-0.62900087	0.54290984	0.17058743	-0.68693484	-0.09712154	-0.36109745	-0.81434250	0.14777637	0.14173939
961	9.60000000	-0.92027399	-0.18934969	0.07624554	-0.58314758	0.22856490	-0.69531894	-0.64210513	-0.57201357	-0.02556788	-0.81381869	-0.24895697	0.06380280	-0.24953293	0.76248597	0.22805643	-0.63018705	0.54192453	0.17719657	-0.69293515	-0.09344029	-0.35700060	-0.81461334	0.14847199	0.12719885
962	9.61000000	-0.92263948	-0.19825600	0.07733037	-0.58676405	0.22027522	-0.69619426	-0.64024661	-0.57446419	-0.01489476	-0.80551485	-0.24965905	0.06580000	-0.24398574	0.76358329	0.22613116	-0.64064079	0.53039612	0.17329388	-0.69145251	-0.09671979	-0.35654667	-0.81840758	0.14236260	0.10690893
963	9.62000000	-0.91594912	-0.19847786	0.07506689	-0.58449584	0.21811848	-0.70313866	-0.63166908	-0.57590934	-0.01005663	-0.80488208	-0.26289074	0.07028896	-0.25037790	0.77469897	0.21741143	-0.64437262	0.53428402	0.17723554	-0.69113807	-0.09892904	-0.35695087	-0.82253505	0.13563663	0.08880153
964	9.63000000	-0.92156995	-0.20066640	0.07502519	-0.59251973	0.20769905	-0.70801499	-0.63485925	-0.58801566	-0.00269121	-0.79861183	-0.27212491	0.07816631	-0.25883801	0.77377155	0.20478827	-0.64091624	0.52421536	0.17527152	-0.69096939	-0.10129418	-0.35275849	-0.83129416	0.12750445	0.06700678
965	9.64000000	-0.92063781	-0.19861738	0.07293892	-0.59090938	0.20721484	-0.70394796	-0.62947137	-0.59318297	-0.00625726	-0.79924687	-0.27985292	0.07432544	-0.27404182	0.76907757	0.18528713	-0.65185638	0.52676911	0.18133305	-0.69498170	-0.09945893	-0.35436200	-0.83130241	0.11231508	0.04015833
966	9.65000000	-0.91768257	-0.20428660	0.07283863	-0.59309713	0.20101111	-0.70238574	-0.62462839	-0.59329948	-0.00312236	-0.80239147	-0.29254415	0.07634509	-0.28783421	0.76712586	0.16762249	-0.65067256	0.53033734	0.18629750	-0.69404087	-0.10107522	-0.35671979	-0.83655669	0.10504441	0.01405579
967	9.66000000	-0.91982712	-0.20513607	0.07497432	-0.58452012	0.20305303	-0.71413090	-0.62460461	-0.59318696	0.00471573	-0.78970671	-0.29861905	0.07961310	-0.30093566	0.76288901	0.14779762	-0.65212950	0.52126257	0.18855312	-0.68697127	-0.10298029	-0.35469544	-0.84632640	0.09860165	-0.02418043
968	9.67000000	-0.91820204	-0.20274328	0.07693994	-0.59159155	0.19748590	-0.71281187	-0.62242696	-0.59512630	-0.00357495	-0.78869417	-0.31130388	0.07340491	-0.32011191	0.75865938	0.13400928	-0.65228204	0.52546192	0.19323590	-0.69444963	-0.10706017	-0.35436612	-0.84009079	0.09642993	-0.05151027
969	9.68000000	-0.91759224	-0.20679574	0.07933834	-0.59469755	0.18890167	-0.71208701	-0.62231260	-0.59916956	-0.00621937	-0.78267061	-0.31169642	0.07478459	-0.34487452	0.75184953	0.12565860	-0.65422812	0.51539847	0.19281963	-0.69352247	-0.10922028	-0.35479427	-0.84158148	0.09240053	-0.08529617
970	9.69000000	-0.91970659	-0.20514890	0.08160340	-0.59230676	0.18430438	-0.71193669	-0.61786563	-0.60336213	-0.01023620	-0.78223585	-0.32304678	0.07607196	-0.35928120	0.74988948	0.11509806	-0.65399388	0.51253080	0.20222099	-0.69113442	-0.11131260	-0.35038344	-0.83807269	0.09012548	-0.10611694
971	9.70000000	-0.92019604	-0.20452613	0.08365162	-0.59412480	0.18229070	-0.71197451	-0.61954008	-0.60745058	-0.01305228	-0.77580486	-0.33383470	0.06975230	-0.37346791	0.73751365	0.10625540	-0.66020409	0.50840706	0.19585169	-0.68876580	-0.11346551	-0.35408263	-0.82864911	0.08605725	-0.13664098
972	9.71000000	-0.91583511	-0.20895674	0.08655452	-0.59385279	0.17471315	-0.71129375	-0.61613352	-0.61038181	-0.01208880	-0.77688967	-0.34376181	0.06794075	-0.40162499	0.72606170	0.10270110	-0.66205335	0.50207067	0.20611007	-0.69064980	-0.11337959	-0.35056566	-0.82790346	0.08229290	-0.16280720
973	9.72000000	-0.91546206	-0.20758201	0.08366093	-0.59777620	0.16373357	-0.71525776	-0.61128301	-0.60553918	-0.02167014	-0.77519327	-0.35639327	0.05897544	-0.42085665	0.71524275	0.09858801	-0.67240148	0.49298658	0.20556346	-0.69104970	-0.11719025	-0.34975002	-0.82379641	0.07153572	-0.17804952
974	9.73000000	-0.91566090	-0.20279041	0.09395584	-0.59822152	0.16121660	-0.72014229	-0.61506660	-0.61522555	-0.01124247	-0.76872096	-0.36310102	0.05975098	-0.43500109	0.69988229	0.10192524	-0.67713876	0.48904945	0.20308484	-0.68649115	-0.12125037	-0.35405177	-0.81622246	0.06327047	-0.20325176
975	9.74000000	-0.91762076	-0.20708108	0.09895665	-0.59385572	0.15361070	-0.72040633	-0.61306996	-0.61848929	-0.01011375	-0.76244854	-0.36886311	0.04590647	-0.46355627	0.68857247	0.09446805	-0.68291136	0.47384810	0.20070115	-0.69208628	-0.12371058	-0.35241811	-0.81569526	0.04599879	-0.21016945
